<svg width="142" height="153" viewBox="0 0 142 153" fill="none" xmlns="http://www.w3.org/2000/svg">
    <g clip-path="url(#clip0_123_2)">
        <path d="M125.518 116.288C135.762 104.015 142 88.2429 142 71C142 31.7979 110.202 0 71 0C31.7979 0 0 31.7979 0 71C0 88.2429 6.23786 104.015 16.4821 116.288L16.3807 116.389C16.7357 116.795 17.1414 117.201 17.4964 117.606C17.9529 118.114 18.46 118.621 18.9164 119.128C20.3364 120.649 21.8071 122.171 23.3286 123.54C23.785 123.946 24.2921 124.351 24.7486 124.757C26.3714 126.177 28.045 127.496 29.7693 128.713C29.9721 128.865 30.175 129.068 30.4286 129.22C42.1943 137.385 56.2929 142 71 142C85.7071 142 99.8057 137.385 111.571 129.169C111.571 129.169 111.977 128.865 112.231 128.713C113.955 127.496 115.629 126.126 117.251 124.757C117.708 124.351 118.215 123.946 118.671 123.54C120.193 122.171 121.664 120.649 123.084 119.128C123.54 118.621 124.047 118.114 124.504 117.606C124.859 117.201 125.264 116.846 125.619 116.389L125.518 116.288ZM71 30.4286C83.6279 30.4286 93.8214 40.6221 93.8214 53.25C93.8214 65.8779 83.6279 76.0714 71 76.0714C58.3721 76.0714 48.1786 65.8779 48.1786 53.25C48.1786 40.6221 58.3721 30.4286 71 30.4286ZM30.4793 116.288C30.6821 102.443 41.9407 91.2857 55.7857 91.2857H86.2143C100.11 91.2857 111.318 102.443 111.521 116.288C100.414 126.228 86.1129 131.857 71 131.857C55.8871 131.857 41.535 126.228 30.4793 116.288Z" fill="#D9D9D9"/>
    </g>
    <circle cx="114.83" cy="125.795" r="24.6695" fill="#D9D9D9" stroke="white" stroke-width="5"/>
    <path d="M99.8633 118.128V135.455V137.621H130.22V118.128H121.547L119.379 113.796H110.705L108.537 118.128H99.8633Z" fill="white"/>
    <path d="M130.024 138.032H100.079C99.4503 138.032 98.9299 137.513 98.9299 136.884V117.326C98.9299 116.698 99.4503 116.179 100.079 116.179H107.517L109.468 113.233C109.685 112.908 110.032 112.713 110.422 112.713H119.638C120.028 112.713 120.375 112.908 120.592 113.233L122.543 116.179H129.981C130.61 116.179 131.13 116.698 131.13 117.326V136.884C131.13 137.513 130.61 138.032 129.981 138.032H130.024ZM101.228 135.737H128.875V118.474H121.958C121.568 118.474 121.221 118.279 121.004 117.955L119.052 115.009H111.073L109.121 117.955C108.904 118.279 108.557 118.474 108.167 118.474H101.25V135.737H101.228Z" fill="white"/>
    <path d="M115.105 122.678C112.568 122.678 110.508 124.736 110.508 127.27C110.508 129.804 112.568 131.862 115.105 131.862C117.642 131.862 119.702 129.804 119.702 127.27C119.702 124.736 117.642 122.678 115.105 122.678ZM115.105 134.179C111.288 134.179 108.188 131.082 108.188 127.27C108.188 123.458 111.288 120.361 115.105 120.361C118.921 120.361 122.022 123.458 122.022 127.27C122.022 131.082 118.921 134.179 115.105 134.179Z" fill="#D9D9D9"/>
    <path d="M115.03 117.544C115.92 117.544 116.641 116.823 116.641 115.934C116.641 115.044 115.92 114.323 115.03 114.323C114.141 114.323 113.42 115.044 113.42 115.934C113.42 116.823 114.141 117.544 115.03 117.544Z" fill="#D9D9D9"/>
    <defs>
        <clipPath id="clip0_123_2">
            <rect width="142" height="142" fill="white"/>
        </clipPath>
    </defs>
</svg>
