<svg width="20" height="11" viewBox="0 0 11 11" fill="none" xmlns="http://www.w3.org/2000/svg">
    <path d="M10.8228 3.84389L7.1561 0.177222C7.09979 0.122252 7.03339 0.0786763 6.96055 0.0488888C6.88478 0.0180992 6.80399 0.0015266 6.72222 0H1.83333C1.3471 0 0.880787 0.193154 0.53697 0.536971C0.193154 0.880788 0 1.3471 0 1.83333V9.16667C0 9.6529 0.193154 10.1192 0.53697 10.463C0.880787 10.8068 1.3471 11 1.83333 11H9.16666C9.65289 11 10.1192 10.8068 10.463 10.463C10.8068 10.1192 11 9.6529 11 9.16667V4.27778C11.0005 4.19735 10.985 4.11762 10.9546 4.04317C10.9242 3.96871 10.8794 3.90099 10.8228 3.84389ZM3.66666 1.22222H6.11111V2.44444H3.66666V1.22222ZM7.33333 9.77778H3.66666V7.94444C3.66666 7.78237 3.73105 7.62693 3.84565 7.51232C3.96026 7.39772 4.1157 7.33333 4.27777 7.33333H6.72222C6.88429 7.33333 7.03973 7.39772 7.15434 7.51232C7.26894 7.62693 7.33333 7.78237 7.33333 7.94444V9.77778ZM9.77777 9.16667C9.77777 9.32874 9.71338 9.48418 9.59878 9.59879C9.48417 9.71339 9.32873 9.77778 9.16666 9.77778H8.55555V7.94444C8.55555 7.45821 8.36239 6.9919 8.01858 6.64808C7.67476 6.30427 7.20845 6.11111 6.72222 6.11111H4.27777C3.79154 6.11111 3.32523 6.30427 2.98141 6.64808C2.6376 6.9919 2.44444 7.45821 2.44444 7.94444V9.77778H1.83333C1.67125 9.77778 1.51582 9.71339 1.40121 9.59879C1.28661 9.48418 1.22222 9.32874 1.22222 9.16667V1.83333C1.22222 1.67126 1.28661 1.51582 1.40121 1.40121C1.51582 1.28661 1.67125 1.22222 1.83333 1.22222H2.44444V3.05556C2.44444 3.21763 2.50883 3.37307 2.62343 3.48768C2.73804 3.60228 2.89348 3.66667 3.05555 3.66667H6.72222C6.88429 3.66667 7.03973 3.60228 7.15434 3.48768C7.26894 3.37307 7.33333 3.21763 7.33333 3.05556V2.08389L9.77777 4.52833V9.16667Z" fill="#E8EA75"/>
</svg>
