<svg width="19" height="19" viewBox="0 0 19 19" fill="none" xmlns="http://www.w3.org/2000/svg">
<path d="M13.687 12.6667C14.8059 11.3226 15.4815 9.61963 15.4815 7.74074C15.4815 3.46926 12.0122 0 7.74074 0C3.46926 0 0 3.46926 0 7.74074C0 12.0122 3.46926 15.4815 7.74074 15.4815C9.61963 15.4815 11.3226 14.8059 12.6667 13.687L18.0078 19L19 18.0078L13.687 12.6667ZM7.74074 14.0741C4.25037 14.0741 1.40741 11.2311 1.40741 7.74074C1.40741 4.25037 4.25037 1.40741 7.74074 1.40741C11.2311 1.40741 14.0741 4.25037 14.0741 7.74074C14.0741 11.2311 11.2311 14.0741 7.74074 14.0741Z" fill="white"/>
</svg>
