<svg width="22" height="21" viewBox="0 0 22 21" fill="none" xmlns="http://www.w3.org/2000/svg">
<g clip-path="url(#clip0_1111_353)">
<path d="M18.4577 10.9987C18.4709 10.8347 18.4841 10.6706 18.4841 10.5C18.4841 10.3293 18.4775 10.1653 18.4643 9.99466L19.7313 8.8856C20.2065 8.47216 20.3186 7.7831 20.0019 7.24497L18.4445 4.56091C18.2004 4.14747 17.7649 3.90466 17.3029 3.90466C17.1643 3.90466 17.0192 3.92435 16.8806 3.97685L15.277 4.51497C14.9999 4.33122 14.7095 4.1606 14.4126 4.01622L14.0826 2.36247C13.9573 1.75216 13.4161 1.30591 12.7892 1.30591H9.67453C9.04763 1.30591 8.50651 1.7456 8.38113 2.36247L8.05119 4.01622C7.74763 4.1606 7.45068 4.32466 7.17352 4.50841L5.57658 3.97028C5.438 3.92435 5.29282 3.8981 5.15424 3.8981C4.69232 3.8981 4.25019 4.14091 4.01262 4.55435L2.45527 7.23841C2.13852 7.7831 2.2573 8.4656 2.72583 8.87903L3.99943 9.99466C3.98623 10.1587 3.97303 10.3228 3.97303 10.4934C3.97303 10.664 3.97963 10.8281 3.99283 10.9987L2.72583 12.1078C2.2507 12.5212 2.13852 13.2103 2.45527 13.7484L4.01262 16.4325C4.25679 16.8459 4.69232 17.0887 5.15424 17.0887C5.29282 17.0887 5.438 17.069 5.57658 17.0165L7.18012 16.4784C7.45728 16.6622 7.74763 16.8328 8.04459 16.9772L8.37454 18.6309C8.49992 19.2412 9.04103 19.6875 9.66793 19.6875H12.7826C13.4095 19.6875 13.9507 19.2478 14.076 18.6309L14.406 16.9772C14.7095 16.8328 15.0065 16.6687 15.2836 16.485L16.8806 17.0231C17.0192 17.069 17.1643 17.0953 17.3029 17.0953C17.7649 17.0953 18.207 16.8525 18.4445 16.439L20.0019 13.755C20.3186 13.2103 20.1999 12.5278 19.7313 12.1143L18.4577 10.9987ZM17.3029 15.7828L15.0395 15.0215C14.5116 15.4678 13.8979 15.8156 13.2512 16.0453L12.7826 18.375H9.66793L9.19941 16.0453C8.55271 15.809 7.9456 15.4481 7.42429 15.015L5.14764 15.7828L3.59029 13.0987L5.39181 11.5303C5.27303 10.8478 5.26643 10.1653 5.39181 9.47622L3.59689 7.90778L5.15424 5.22372L7.41769 5.98497C7.9456 5.53872 8.55931 5.19091 9.206 4.96122L9.67453 2.63153H12.7892L13.2578 4.96122C13.9045 5.19747 14.5116 5.55841 15.0329 5.99153L17.3095 5.22372L18.8669 7.90778L17.0654 9.48278C17.1841 10.1653 17.1907 10.8478 17.0654 11.5368L18.8603 13.1053L17.3029 15.7893V15.7828Z" fill="#D9D9D9"/>
<path d="M11.2255 14.4375C9.00824 14.4375 7.26611 12.705 7.26611 10.5C7.26611 8.295 9.00824 6.5625 11.2255 6.5625C13.4427 6.5625 15.1849 8.295 15.1849 10.5C15.1849 12.705 13.4427 14.4375 11.2255 14.4375ZM11.2255 7.875C9.72093 7.875 8.5859 9.00375 8.5859 10.5C8.5859 11.9963 9.72093 13.125 11.2255 13.125C12.7301 13.125 13.8651 11.9963 13.8651 10.5C13.8651 9.00375 12.7301 7.875 11.2255 7.875Z" fill="#D9D9D9"/>
</g>
<defs>
<clipPath id="clip0_1111_353">
<rect width="21.1167" height="21" fill="white" transform="translate(0.666992)"/>
</clipPath>
</defs>
</svg>
