<svg width="22" height="22" viewBox="0 0 22 22" fill="none" xmlns="http://www.w3.org/2000/svg">
    <g clip-path="url(#clip0_1341_2250)">
        <path d="M12.9726 19.2128H9.03002V16.4563L8.53856 16.2532L6.588 18.2037L3.79868 15.4144L5.74924 13.4638L5.5461 12.9724H2.78955V9.02976H5.5461L5.74924 8.5383L3.79868 6.58774L6.588 3.79843L8.53856 5.7468L9.03002 5.54366V2.78711H12.9726V5.54366L13.4641 5.7468L15.4146 3.79843L18.204 6.58774L16.2534 8.5383L16.4565 9.02976H19.2131V12.9724H16.4565L16.2534 13.4638L18.204 15.4144L15.4146 18.2037L13.4641 16.2532L12.9726 16.4563V19.2128ZM10.0129 18.2299H11.9897V15.7988L13.6956 15.0911L15.4146 16.8101L16.8126 15.4122L15.0936 13.6932L15.7991 11.9873H18.2302V10.0105H15.7991L15.0936 8.30458L16.8126 6.58556L15.4146 5.18763L13.6956 6.90665L11.9897 6.20113V3.77003H10.0129V6.20113L8.30702 6.90665L6.588 5.18763L5.19007 6.58556L6.90909 8.30458L6.20357 10.0105H3.77247V11.9873H6.20357L6.90909 13.6932L5.19007 15.4122L6.588 16.8101L8.30702 15.0911L10.0129 15.7988V18.2299Z" fill="white"/>
        <path d="M11.0003 13.7347C9.491 13.7347 8.26562 12.5071 8.26562 11C8.26562 9.49282 9.49319 8.26526 11.0003 8.26526C12.5075 8.26526 13.735 9.49282 13.735 11C13.735 12.5071 12.5075 13.7347 11.0003 13.7347ZM11.0003 9.246C10.0349 9.246 9.24855 10.0323 9.24855 10.9978C9.24855 11.9632 10.0349 12.7496 11.0003 12.7496C11.9658 12.7496 12.7521 11.9632 12.7521 10.9978C12.7521 10.0323 11.9658 9.246 11.0003 9.246Z" fill="white"/>
    </g>
    <defs>
        <clipPath id="clip0_1341_2250">
            <rect width="22" height="22" fill="white"/>
        </clipPath>
    </defs>
</svg>
