<svg width="32" height="32" viewBox="0 0 32 32" fill="none" xmlns="http://www.w3.org/2000/svg">
    <circle cx="16" cy="16" r="15.5" fill="white" stroke="white"/>
    <g clip-path="url(#clip0_123_2)">
        <path d="M21.9231 9H10.0769C9.4827 9 9 9.4827 9 10.0769V21.9231C9 22.5173 9.4827 23 10.0769 23H21.9231C22.5173 23 23 22.5173 23 21.9231V10.0769C23 9.4827 22.5173 9 21.9231 9ZM21.9231 10.0769V12.2308H10.0769V10.0769H21.9231ZM16.5385 13.3077H21.9231V17.0769H16.5385V13.3077ZM15.4615 17.0769H10.0769V13.3077H15.4615V17.0769ZM10.0769 18.1538H15.4615V21.9231H10.0769V18.1538ZM16.5385 21.9231V18.1538H21.9231V21.9231H16.5385Z" fill="#FFCD00"/>
    </g>
    <defs>
        <clipPath id="clip0_123_2">
            <rect width="14" height="14" fill="white" transform="translate(9 9)"/>
        </clipPath>
    </defs>
</svg>
