<svg width="32" height="32" viewBox="0 0 32 32" fill="none" xmlns="http://www.w3.org/2000/svg">
    <circle cx="16" cy="16" r="16" fill="white"/>
    <g clip-path="url(#clip0_123_2)">
        <path d="M22.8462 8.28564H10.1538C9.51718 8.28564 9 8.86193 9 9.57136V23.7142C9 24.4236 9.51718 24.9999 10.1538 24.9999H22.8462C23.4828 24.9999 24 24.4236 24 23.7142V9.57136C24 8.86193 23.4828 8.28564 22.8462 8.28564ZM22.8462 9.57136V12.1428H10.1538V9.57136H22.8462ZM10.1538 23.7142V13.4285H22.8462V23.7142H10.1538Z" fill="#FF0000"/>
        <path d="M14.1922 19.3833H11.8845V20.669H14.1922V19.3833Z" fill="#FF0000"/>
        <path d="M17.6539 19.3833H15.3462V20.669H17.6539V19.3833Z" fill="#FF0000"/>
        <path d="M14.1922 16.812H11.8845V18.0977H14.1922V16.812Z" fill="#FF0000"/>
        <path d="M21.1153 16.812H18.8076V18.0977H21.1153V16.812Z" fill="#FF0000"/>
        <path d="M21.0677 19.3833H18.76V20.669H21.0677V19.3833Z" fill="#FF0000"/>
        <path d="M17.6539 16.812H15.3462V18.0977H17.6539V16.812Z" fill="#FF0000"/>
        <path d="M13.6631 7H12.5093V10.8571H13.6631V7Z" fill="#FF0000"/>
        <path d="M20.4905 7H19.3367V10.8571H20.4905V7Z" fill="#FF0000"/>
    </g>
    <defs>
        <clipPath id="clip0_123_2">
            <rect width="15" height="18" fill="white" transform="translate(9 7)"/>
        </clipPath>
    </defs>
</svg>
