<svg width="22" height="22" viewBox="0 0 22 22" fill="none" xmlns="http://www.w3.org/2000/svg">
<path d="M15.8125 11.6875C15.8125 14.3481 13.6607 16.5 11 16.5C9.74191 16.5 8.60754 16.0118 7.74816 15.2212L8.71753 14.2518C9.32253 14.795 10.12 15.125 10.9932 15.125C12.8907 15.125 14.4307 13.585 14.4307 11.6875V8.53871L20.6182 2.35121L19.6488 1.38184L1.36816 19.6625L2.33753 20.6318L6.76503 16.2043C7.70691 17.0912 8.93066 17.6893 10.3057 17.8337V19.25H7.55566V20.625H14.4307V19.25H11.6807V17.8337C14.8088 17.4831 17.1738 14.8362 17.1807 11.6875V9.62496H15.8057V11.6875H15.8125Z" fill="#FF2D2D"/>
<path d="M6.20125 11.9075C6.20125 11.8319 6.1875 11.7631 6.1875 11.6875V9.625H4.8125V11.6875C4.8125 12.1825 4.87438 12.6638 4.98438 13.1244L6.20125 11.9075Z" fill="#FF2D2D"/>
<path d="M14.2725 3.83625C13.8531 2.41313 12.5538 1.375 11 1.375C9.1025 1.375 7.5625 2.915 7.5625 4.8125V10.5463L14.2725 3.83625Z" fill="#FF2D2D"/>
</svg>
