<svg width="23" height="23" viewBox="0 0 23 23" fill="none" xmlns="http://www.w3.org/2000/svg">
<path d="M16.5313 10.0625V12.2188C16.5313 15.0003 14.2816 17.25 11.5 17.25C8.71845 17.25 6.46877 15.0003 6.46877 12.2188V10.0625H5.03127V12.2188C5.02408 15.5178 7.50377 18.285 10.7813 18.6444V20.125H7.90627V21.5625H15.0938V20.125H12.2188V18.6444C15.4891 18.2778 17.9616 15.5106 17.9688 12.2188V10.0625H16.5313Z" fill="#D9D9D9"/>
<path d="M11.5 15.8125C13.4837 15.8125 15.0938 14.2025 15.0938 12.2188V5.03125C15.0938 3.0475 13.4837 1.4375 11.5 1.4375C9.51625 1.4375 7.90625 3.0475 7.90625 5.03125V12.2188C7.90625 14.2025 9.51625 15.8125 11.5 15.8125Z" fill="#D9D9D9"/>
</svg>
